<svg width="640" height="160" viewBox="0 0 640 160" fill="none" xmlns="http://www.w3.org/2000/svg" role="img" aria-labelledby="title desc">
  <title id="title">Gestor Max</title>
  <desc id="desc">Logo Gestor Max com ícone GM vermelho e texto preto.</desc>
  <rect width="640" height="160" fill="transparent"/>
  <rect x="16" y="24" width="112" height="112" rx="28" fill="#FF2A1F"/>
  <path d="M67.6 51.5C54.3 51.5 43.6 61.9 43.6 75.3C43.6 88.8 54.2 99.2 68.3 99.2C77.4 99.2 84.6 95.3 88.2 89.4H69.1V70.2H113.7V108.2H91.8V100.9C85.9 107.2 77.6 110.5 67.3 110.5C44.1 110.5 27.3 95.2 27.3 75.4C27.3 55.6 44.5 40.2 67.8 40.2C83.9 40.2 97.5 47.3 104.8 59.5L86.8 68.2C83.1 57.9 75.9 51.5 67.6 51.5Z" fill="white"/>
  <path d="M99.4 71.2H124.6L146.4 93.5L168.2 71.2H193.3V110H174.6V89.5L151.5 113.5H141.2L118.1 89.6V110H99.4V71.2Z" fill="white" transform="translate(-38 0)"/>
  <text x="168" y="102" fill="#060606" font-family="Inter, ui-sans-serif, system-ui, -apple-system, BlinkMacSystemFont, Segoe UI, sans-serif" font-size="72" font-weight="800" letter-spacing="-3.5">Gestor Max</text>
</svg>
