<?xml version="1.0" encoding="UTF-8" standalone="no"?>
<svg
   viewBox="0 0 2048 512"
   width="2048"
   height="512"
   version="1.1"
   id="svg2"
   sodipodi:docname="tmp_logo_text2.svg"
   xmlns:inkscape="http://www.inkscape.org/namespaces/inkscape"
   xmlns:sodipodi="http://sodipodi.sourceforge.net/DTD/sodipodi-0.dtd"
   xmlns="http://www.w3.org/2000/svg"
   xmlns:svg="http://www.w3.org/2000/svg">
  <defs
     id="defs2" />
  <sodipodi:namedview
     id="namedview2"
     pagecolor="#ffffff"
     bordercolor="#000000"
     borderopacity="0.25"
     inkscape:showpageshadow="2"
     inkscape:pageopacity="0.0"
     inkscape:pagecheckerboard="0"
     inkscape:deskcolor="#d1d1d1" />
  <title
     id="title1">Gestor Max - logo branca sem fundo</title>
  <g
     fill-rule="evenodd"
     clip-rule="evenodd"
     id="g2">
    <path
       d="M 123 147 L 115 159 L 109 179 L 109 371 L 115 393 L 124 406 L 140 418 L 156 423 L 371 423 L 390 416 L 404 403 L 412 390 L 417 371 L 417 180 L 413 163 L 397 140 L 384 132 L 368 128 L 159 128 L 136 136 Z M 388 356 L 354 356 L 354 291 L 305 344 L 301 344 L 252 292 L 218 291 L 217 261 L 268 260 L 304 298 L 351 246 L 387 246 Z M 215 187 L 243 188 L 268 197 L 291 216 L 306 241 L 305 246 L 272 246 L 258 231 L 236 221 L 215 221 L 193 231 L 178 249 L 173 264 L 173 281 L 179 298 L 190 312 L 204 321 L 217 325 L 235 325 L 258 318 L 276 337 L 276 341 L 267 348 L 236 358 L 201 355 L 172 340 L 149 312 L 140 284 L 143 247 L 158 219 L 181 199 Z"
       fill="#F71919"
       id="path1" />
    <path
       d="M 387 357 L 387 249 L 352 249 L 305 301 L 299 297 L 268 263 L 220 263 L 220 290 L 254 291 L 304 345 L 340 305 L 356 290 L 357 357 Z M 216 190 L 199 194 L 182 202 L 161 220 L 147 244 L 143 260 L 143 286 L 147 302 L 156 320 L 176 341 L 185 347 L 202 354 L 216 357 L 238 357 L 258 352 L 273 344 L 277 340 L 257 319 L 246 325 L 235 328 L 219 328 L 207 325 L 191 315 L 179 301 L 172 281 L 172 266 L 176 252 L 184 239 L 198 227 L 212 221 L 223 219 L 237 220 L 253 226 L 263 233 L 273 245 L 306 245 L 294 222 L 283 210 L 271 201 L 249 192 L 238 190 Z M 95 114 L 95 439 L 433 439 L 433 114 Z M 128 142 L 145 131 L 160 127 L 369 127 L 385 131 L 398 139 L 406 147 L 414 159 L 420 182 L 420 371 L 415 391 L 404 408 L 391 419 L 372 426 L 156 426 L 143 422 L 129 413 L 121 405 L 114 394 L 108 373 L 108 180 L 114 160 L 121 149 Z"
       fill="#FFFFFF"
       id="path2" />
  </g>
  <path
     d="m 595.70312,387.39258 c 46.65528,0 80.15137,-28.47168 80.15137,-77.28028 v -24.64355 h -78.95508 v 34.45312 h 32.29981 c -0.47852,15.55176 -11.48438,25.36133 -33.01758,25.36133 -25.12207,0 -38.04199,-18.42285 -38.04199,-49.76562 0,-30.86426 13.99658,-49.04785 38.28125,-49.04785 15.19287,0 25.48096,6.93847 28.47168,19.14062 h 48.80859 c -3.70849,-35.76904 -36.24756,-61.25 -78.2373,-61.25 -48.09082,0 -87.08985,33.13721 -87.08985,91.875 0,56.34522 35.29053,91.15723 87.3291,91.15723 z m 165.44678,0 c 34.09424,0 56.58447,-15.07324 63.40332,-39.11865 l -42.34863,-6.22071 c -2.87109,7.41699 -10.28809,11.60401 -20.09766,11.60401 -13.27881,0 -22.13134,-7.89551 -22.72949,-24.4043 h 87.08985 v -11.00586 c 0,-42.58789 -26.07911,-68.66699 -66.51368,-68.66699 -41.3916,0 -67.70996,27.51465 -67.70996,68.90625 0,43.30566 25.95947,68.90625 68.90625,68.90625 z m -21.41357,-84.45801 c 1.43554,-12.68066 8.49365,-19.61914 20.6958,-19.61914 12.20215,0 19.26025,6.93848 20.6958,19.61914 z m 165.5664,84.45801 c 38.16163,0 65.91553,-17.94434 65.91553,-46.65528 0,-19.73876 -13.39844,-31.34277 -40.67383,-36.12793 l -27.27539,-4.78515 c -10.04883,-1.79443 -12.68066,-5.62256 -12.68066,-9.57031 0,-5.50293 6.57959,-8.61329 14.83398,-8.61329 9.33106,0 16.98731,3.94776 19.14063,12.68067 l 42.34863,-6.10108 c -4.18701,-24.28466 -27.03613,-38.64013 -62.44629,-38.64013 -38.28125,0 -61.72851,15.67138 -61.72851,43.54492 0,21.05469 13.51806,34.3335 40.67382,39.23828 l 23.68653,4.30664 c 10.52734,1.91406 15.3125,4.66553 15.3125,9.80957 0,5.50293 -5.50293,8.37403 -14.95362,8.37403 -13.63769,0 -20.21728,-5.86182 -23.32763,-16.38916 l -44.50196,6.45996 c 4.5459,26.31836 29.30909,42.46826 65.67627,42.46826 z m 162.57567,-136.1377 h -22.9687 v -31.82129 h -48.09085 v 31.82129 h -16.98731 v 34.93164 h 16.98731 v 60.29297 c 0,26.67725 15.31245,40.5542 45.33935,40.5542 8.6133,0 18.3032,-0.8374 29.3091,-3.82812 l -5.7422,-34.3335 c -1.7944,0.59814 -8.8525,1.55518 -11.7236,1.55518 -6.3404,0 -9.0918,-2.75147 -9.0918,-8.37403 v -55.8667 h 22.9687 z m 81.7066,136.1377 c 43.4253,0 69.0258,-27.75391 69.0258,-68.90625 0,-41.03272 -25.6005,-68.90625 -69.0258,-68.90625 -43.6646,0 -69.2652,27.87353 -69.2652,68.90625 0,41.15234 25.6006,68.90625 69.2652,68.90625 z m 0,-35.88867 c -12.6807,0 -20.2173,-12.32178 -20.2173,-33.25684 0,-21.05469 7.5366,-32.77832 20.2173,-32.77832 12.4414,0 19.978,11.72363 19.978,32.77832 0,20.93506 -7.5366,33.25684 -19.978,33.25684 z M 1238.23,385 h 48.0908 v -69.62402 c 0,-15.3125 10.4077,-25.36133 24.6436,-25.36133 4.9047,0 12.9199,0.71777 17.705,2.39258 v -40.91309 c -3.8281,-1.19629 -8.0151,-1.91406 -12.2021,-1.91406 -14.2359,0 -25.3613,8.37402 -30.1465,27.27539 h -1.4355 V 251.25488 H 1238.23 Z m 154.3213,0 h 48.8086 v -68.90625 c 0,-13.15918 -1.1963,-42.70752 -1.6748,-68.06885 5.8618,26.19873 13.1591,54.07227 17.4658,68.06885 L 1478.2056,385 h 40.1953 l 20.6958,-68.90625 c 4.4262,-14.4751 11.9629,-43.90381 17.7051,-71.05957 -0.4786,25.95947 -1.7945,57.42187 -1.7945,71.05957 V 385 h 48.8086 V 206.75293 H 1527.373 L 1511.582,262.5 c -3.7085,13.03955 -9.0918,40.43457 -13.2788,63.76221 -4.0674,-23.32764 -9.6899,-50.72266 -13.3984,-63.76221 l -16.0303,-55.74707 h -76.3232 z m 272.2754,2.15332 c 17.3462,0 30.3857,-5.98145 38.5205,-21.05469 h 0.957 V 385 h 44.9805 v -91.63574 c 0,-24.64356 -24.4043,-43.78418 -62.4463,-43.78418 -37.5635,0 -58.02,18.30322 -61.7285,40.67383 l 43.3056,4.30664 c 1.5552,-8.13477 8.6133,-11.96289 17.7051,-11.96289 9.2114,0 15.0732,3.94775 15.0732,10.7666 v 0.47851 c 0,7.77588 -8.4936,10.16846 -30.8642,11.72364 -27.6343,2.03369 -49.0479,13.2788 -49.0479,42.58789 0,26.55761 17.8247,38.99902 43.545,38.99902 z m 15.5517,-30.38574 c -8.1347,0 -13.8769,-3.94776 -13.8769,-11.48438 0,-6.81884 4.7851,-12.08252 16.0302,-13.87695 7.5367,-1.19629 13.9966,-2.75146 19.1407,-4.78516 v 11.00586 c 0,12.20215 -10.4078,19.14063 -21.294,19.14063 z M 1764.2383,385 h 49.2871 l 10.4077,-21.05469 c 4.0674,-8.25439 7.7759,-17.10693 11.3648,-25.83984 3.8281,8.73291 7.7758,17.58545 11.9628,25.83984 L 1858.0273,385 h 50.0049 l -40.4345,-68.66699 38.7597,-65.07813 h -49.4067 l -8.8526,16.98731 c -4.187,8.13476 -8.0151,16.74804 -11.8432,25.36133 -3.4693,-8.49366 -7.0581,-17.22657 -11.0059,-25.36133 l -8.2544,-16.98731 h -50.3637 l 37.5634,65.07813 z"
     id="text2"
     style="font-weight:900;font-size:245px;font-family:Inter, Arial, sans-serif;fill:#ffffff"
     aria-label="Gestor Max" />
</svg>
